<mxfile host="app.diagrams.net" modified="2023-11-30T23:41:30.997Z" agent="Mozilla/5.0 (Windows NT 10.0; Win64; x64; rv:120.0) Gecko/20100101 Firefox/120.0" etag="In9z6eszNwTtBPpgIXEA" version="22.1.5" type="github">
  <diagram name="PÃ¡gina-1" id="_YR2fwM71f63MIdH_Y7O">
    <mxGraphModel dx="1050" dy="558" grid="1" gridSize="10" guides="1" tooltips="1" connect="1" arrows="1" fold="1" page="1" pageScale="1" pageWidth="827" pageHeight="1169" math="0" shadow="0">
      <root>
        <mxCell id="0" />
        <mxCell id="1" parent="0" />
        <mxCell id="2jFjCjJlpUujMyxGu7t_-1" value="Contextos Acotados" style="text;html=1;strokeColor=none;fillColor=none;align=center;verticalAlign=middle;whiteSpace=wrap;rounded=0;" vertex="1" parent="1">
          <mxGeometry x="270" y="60" width="170" height="30" as="geometry" />
        </mxCell>
        <mxCell id="2jFjCjJlpUujMyxGu7t_-2" value="Agendamiento" style="rounded=0;whiteSpace=wrap;html=1;" vertex="1" parent="1">
          <mxGeometry x="180" y="160" width="240" height="60" as="geometry" />
        </mxCell>
      </root>
    </mxGraphModel>
  </diagram>
</mxfile>
